<svg width="16" height="16" viewBox="0 0 16 16" fill="none" xmlns="http://www.w3.org/2000/svg">
<path d="M9.21334 14.6667H6.78667C6.63462 14.6667 6.48714 14.6148 6.36867 14.5194C6.2502 14.4241 6.16787 14.2912 6.13534 14.1427L5.864 12.8867C5.50204 12.7281 5.15882 12.5297 4.84067 12.2953L3.616 12.6853C3.47104 12.7316 3.31463 12.7268 3.17275 12.6719C3.03086 12.6169 2.91204 12.5151 2.836 12.3833L1.62 10.2827C1.54477 10.1508 1.51652 9.99723 1.5399 9.84718C1.56327 9.69713 1.63687 9.55945 1.74867 9.45668L2.69867 8.59001C2.65547 8.19742 2.65547 7.80127 2.69867 7.40868L1.74867 6.54401C1.63672 6.44119 1.56301 6.30339 1.53963 6.1532C1.51626 6.003 1.54459 5.84932 1.62 5.71734L2.83334 3.61534C2.90937 3.48355 3.0282 3.38174 3.17008 3.3268C3.31197 3.27187 3.46838 3.26712 3.61334 3.31334L4.838 3.70334C5.00067 3.58334 5.17 3.47134 5.34467 3.37001C5.51334 3.27534 5.68667 3.18934 5.864 3.11268L6.136 1.85801C6.16838 1.70948 6.25056 1.57647 6.3689 1.48104C6.48724 1.38562 6.63465 1.3335 6.78667 1.33334H9.21334C9.36536 1.3335 9.51276 1.38562 9.6311 1.48104C9.74945 1.57647 9.83162 1.70948 9.864 1.85801L10.1387 3.11334C10.5004 3.27194 10.8434 3.47027 11.1613 3.70468L12.3867 3.31468C12.5315 3.26862 12.6878 3.27346 12.8295 3.32838C12.9713 3.38331 13.09 3.48503 13.166 3.61668L14.3793 5.71868C14.534 5.99001 14.4807 6.33334 14.2507 6.54468L13.3007 7.41134C13.3439 7.80394 13.3439 8.20008 13.3007 8.59268L14.2507 9.45934C14.4807 9.67134 14.534 10.014 14.3793 10.2853L13.166 12.3873C13.09 12.5191 12.9711 12.6209 12.8293 12.6759C12.6874 12.7308 12.531 12.7356 12.386 12.6893L11.1613 12.2993C10.8434 12.5336 10.5004 12.7317 10.1387 12.89L9.864 14.1427C9.83149 14.2911 9.74926 14.4239 9.63093 14.5192C9.5126 14.6145 9.36527 14.6665 9.21334 14.6667ZM5.08 10.8193L5.62667 11.2193C5.75 11.31 5.878 11.3933 6.01134 11.4693C6.13667 11.542 6.26467 11.6073 6.39733 11.6667L7.01934 11.9393L7.324 13.3333H8.67734L8.982 11.9387L9.604 11.666C9.87534 11.546 10.1333 11.3973 10.3727 11.222L10.9193 10.822L12.2807 11.2553L12.9573 10.0833L11.902 9.12134L11.9767 8.44668C12.01 8.15134 12.01 7.85334 11.9767 7.55868L11.902 6.88401L12.958 5.92001L12.2807 4.74734L10.92 5.18068L10.3727 4.78068C10.1332 4.60447 9.8755 4.4545 9.604 4.33334L8.982 4.06068L8.67734 2.66668H7.324L7.01734 4.06134L6.39733 4.33334C6.12546 4.45242 5.86765 4.60133 5.62867 4.77734L5.08134 5.17734L3.72133 4.74401L3.04334 5.92001L4.09867 6.88068L4.024 7.55601C3.99067 7.85134 3.99067 8.14934 4.024 8.44401L4.09867 9.11868L3.04334 10.0807L3.72 11.2527L5.08 10.8193ZM7.99734 10.6667C7.29009 10.6667 6.61181 10.3857 6.11172 9.88563C5.61162 9.38553 5.33067 8.70725 5.33067 8.00001C5.33067 7.29277 5.61162 6.61449 6.11172 6.11439C6.61181 5.61429 7.29009 5.33334 7.99734 5.33334C8.70458 5.33334 9.38286 5.61429 9.88295 6.11439C10.3831 6.61449 10.664 7.29277 10.664 8.00001C10.664 8.70725 10.3831 9.38553 9.88295 9.88563C9.38286 10.3857 8.70458 10.6667 7.99734 10.6667ZM7.99734 6.66668C7.73624 6.66694 7.48097 6.74386 7.26319 6.88788C7.04541 7.03191 6.87471 7.23671 6.77227 7.47687C6.66983 7.71703 6.64015 7.98198 6.68692 8.23885C6.73369 8.49572 6.85485 8.73321 7.03536 8.92185C7.21588 9.11049 7.44781 9.24198 7.70237 9.3C7.95694 9.35802 8.22294 9.34003 8.46738 9.24825C8.71181 9.15647 8.92391 8.99495 9.07738 8.78371C9.23085 8.57248 9.31892 8.32084 9.33067 8.06001V8.32668V8.00001C9.33067 7.64639 9.19019 7.30725 8.94014 7.0572C8.6901 6.80715 8.35096 6.66668 7.99734 6.66668Z" fill="black"/>
</svg>
