<svg width="166" height="85" viewBox="0 0 166 85" fill="none" xmlns="http://www.w3.org/2000/svg">
<mask id="path-1-outside-1_44_49" maskUnits="userSpaceOnUse" x="112" y="0" width="54" height="79" fill="black">
<rect fill="white" x="112" width="54" height="79"/>
<path d="M132.15 61.4462H130.9V65.9463L131.86 66.342V69.9475L132.82 70.3333V73.3083L134.427 73.9487C135.184 75.735 136.934 77 139 77C141.065 77 142.814 75.735 143.572 73.9462L145.231 73.3058V70.3333L146.19 69.9475V66.342L147.147 65.9463V61.445L132.15 61.4462Z"/>
<path d="M139 2C125.216 2 114 11.8613 114 23.9825C114 30.392 118.206 36.9912 122.27 43.3684L122.276 43.3775L122.285 43.3914C125.786 48.8776 129.127 54.1145 130.171 59.5H147.827C148.875 54.1087 152.217 48.8675 155.72 43.3775L155.722 43.3747C159.79 36.9955 164 30.394 164 23.9825C164 11.8613 152.784 2 139 2Z"/>
</mask>
<path d="M132.15 61.4462H130.9V65.9463L131.86 66.342V69.9475L132.82 70.3333V73.3083L134.427 73.9487C135.184 75.735 136.934 77 139 77C141.065 77 142.814 75.735 143.572 73.9462L145.231 73.3058V70.3333L146.19 69.9475V66.342L147.147 65.9463V61.445L132.15 61.4462Z" fill="white"/>
<path d="M139 2C125.216 2 114 11.8613 114 23.9825C114 30.392 118.206 36.9912 122.27 43.3684L122.276 43.3775L122.285 43.3914C125.786 48.8776 129.127 54.1145 130.171 59.5H147.827C148.875 54.1087 152.217 48.8675 155.72 43.3775L155.722 43.3747C159.79 36.9955 164 30.394 164 23.9825C164 11.8613 152.784 2 139 2Z" fill="white"/>
<path d="M122.276 43.3775L121.433 43.915L121.433 43.9154L122.276 43.3775ZM121.433 43.9154C121.435 43.9175 121.436 43.9197 121.437 43.922C121.439 43.9243 121.44 43.9268 121.442 43.9293L123.128 42.8535C123.127 42.8513 123.125 42.8492 123.124 42.8469C123.122 42.8446 123.121 42.8421 123.119 42.8396L121.433 43.9154ZM121.427 43.9059C121.45 43.9411 121.411 43.8799 121.433 43.915L123.12 42.84C123.119 42.8385 123.118 42.837 123.117 42.8355C123.116 42.8339 123.115 42.8324 123.114 42.831L121.427 43.9059ZM122.276 43.3775L120.59 44.4525L120.59 44.4529L122.276 43.3775ZM130.171 59.5L128.208 59.8807L128.522 61.5H130.171V59.5ZM147.827 59.5V61.5H149.476L149.791 59.8815L147.827 59.5ZM155.72 43.3775L157.406 44.4532L157.406 44.4527L155.72 43.3775ZM132.15 61.4462V63.4462H132.15L132.15 61.4462ZM130.9 61.4462V59.4462H128.9V61.4462H130.9ZM130.9 65.9463H128.9V67.2851L130.138 67.7953L130.9 65.9463ZM131.86 66.342H133.86V65.0032L132.622 64.4929L131.86 66.342ZM131.86 69.9475H129.86V71.2991L131.114 71.8032L131.86 69.9475ZM132.82 70.3333H134.82V68.9817L133.566 68.4776L132.82 70.3333ZM132.82 73.3083H130.82V74.6644L132.08 75.1663L132.82 73.3083ZM134.427 73.9487L136.269 73.169L135.944 72.3999L135.168 72.0908L134.427 73.9487ZM143.572 73.9462L142.852 72.0805L142.062 72.3855L141.731 73.1652L143.572 73.9462ZM145.231 73.3058L145.952 75.1716L147.231 74.6776V73.3058H145.231ZM145.231 70.3333L144.485 68.478L143.231 68.9823V70.3333H145.231ZM146.19 69.9475L146.937 71.8029L148.19 71.2985V69.9475H146.19ZM146.19 66.342L145.426 64.4936L144.19 65.0045V66.342H146.19ZM147.147 65.9463L147.911 67.7946L149.147 67.2837V65.9463H147.147ZM147.147 61.445H149.147V59.4448L147.147 59.445L147.147 61.445ZM122.27 43.3684L120.584 44.4434L120.584 44.4434L122.27 43.3684ZM122.285 43.3914L120.599 44.4667L120.599 44.4671L122.285 43.3914ZM155.722 43.3747L154.036 42.2993L154.035 42.2994L155.722 43.3747ZM139 0C124.361 0 112 10.5227 112 23.9825H116C116 13.1998 126.071 4 139 4V0ZM130.171 61.5H147.827V57.5H130.171V61.5ZM149.791 59.8815C150.751 54.9382 153.845 50.0347 157.406 44.4532L154.034 42.3018C150.59 47.7003 146.999 53.2793 145.864 59.1185L149.791 59.8815ZM166 23.9825C166 10.5227 153.639 0 139 0V4C151.929 4 162 13.1998 162 23.9825H166ZM132.15 59.4462H130.9V63.4462H132.15V59.4462ZM128.9 61.4462V65.9463H132.9V61.4462H128.9ZM130.138 67.7953L131.098 68.191L132.622 64.4929L131.662 64.0972L130.138 67.7953ZM129.86 66.342V69.9475H133.86V66.342H129.86ZM131.114 71.8032L132.074 72.1891L133.566 68.4776L132.606 68.0918L131.114 71.8032ZM130.82 70.3333V73.3083H134.82V70.3333H130.82ZM132.08 75.1663L133.687 75.8067L135.168 72.0908L133.56 71.4504L132.08 75.1663ZM132.586 74.7285C133.638 77.2132 136.087 79 139 79V75C137.781 75 136.73 74.2568 136.269 73.169L132.586 74.7285ZM139 79C141.914 79 144.36 77.2117 145.414 74.7272L141.731 73.1652C141.268 74.2583 140.216 75 139 75V79ZM144.293 75.812L145.952 75.1716L144.511 71.4401L142.852 72.0805L144.293 75.812ZM147.231 73.3058V70.3333H143.231V73.3058H147.231ZM145.978 72.1887L146.937 71.8029L145.443 68.0921L144.485 68.478L145.978 72.1887ZM148.19 69.9475V66.342H144.19V69.9475H148.19ZM146.954 68.1903L147.911 67.7946L146.384 64.0979L145.426 64.4936L146.954 68.1903ZM149.147 65.9463V61.445H145.147V65.9463H149.147ZM147.147 59.445L132.15 59.4462L132.15 63.4462L147.148 63.445L147.147 59.445ZM112 23.9825C112 27.6121 113.187 31.1767 114.808 34.5532C116.429 37.9291 118.565 41.2763 120.584 44.4434L123.957 42.2935C121.911 39.0834 119.912 35.9423 118.414 32.8219C116.916 29.7021 116 26.7624 116 23.9825H112ZM120.584 44.4434L120.59 44.4525L123.963 42.3025L123.957 42.2934L120.584 44.4434ZM120.59 44.4529L120.599 44.4667L123.971 42.316L123.963 42.3022L120.59 44.4529ZM120.599 44.4671C124.158 50.0454 127.251 54.944 128.208 59.8807L132.135 59.1193C131.004 53.2851 127.413 47.7097 123.971 42.3156L120.599 44.4671ZM157.406 44.4527L157.408 44.4499L154.035 42.2994L154.034 42.3023L157.406 44.4527ZM157.408 44.4501C159.428 41.282 161.567 37.9338 163.189 34.5568C164.812 31.1792 166 27.6134 166 23.9825H162C162 26.7631 161.083 29.7038 159.584 32.8246C158.084 35.9461 156.083 39.0882 154.036 42.2993L157.408 44.4501Z" fill="black" mask="url(#path-1-outside-1_44_49)"/>
<path d="M132.385 70.4279C132.385 70.4279 134.833 72 139 72C143.167 72 145.658 70.4279 145.658 70.4279" stroke="black" stroke-width="2"/>
<path d="M131.483 66.433C131.483 66.433 134.833 68.6667 139 68.6667C143.167 68.6667 146.646 66.433 146.646 66.433" stroke="black" stroke-width="2"/>
<path d="M9.93182 38V14.7273H13.4432V24.8409H25.0455V14.7273H28.5682V38H25.0455V27.8523H13.4432V38H9.93182ZM40.7614 38.3523C39.125 38.3523 37.697 37.9773 36.4773 37.2273C35.2576 36.4773 34.3106 35.428 33.6364 34.0795C32.9621 32.7311 32.625 31.1553 32.625 29.3523C32.625 27.5417 32.9621 25.9583 33.6364 24.6023C34.3106 23.2462 35.2576 22.1932 36.4773 21.4432C37.697 20.6932 39.125 20.3182 40.7614 20.3182C42.3977 20.3182 43.8258 20.6932 45.0455 21.4432C46.2652 22.1932 47.2121 23.2462 47.8864 24.6023C48.5606 25.9583 48.8977 27.5417 48.8977 29.3523C48.8977 31.1553 48.5606 32.7311 47.8864 34.0795C47.2121 35.428 46.2652 36.4773 45.0455 37.2273C43.8258 37.9773 42.3977 38.3523 40.7614 38.3523ZM40.7727 35.5C41.8333 35.5 42.7121 35.2197 43.4091 34.6591C44.1061 34.0985 44.6212 33.3523 44.9545 32.4205C45.2955 31.4886 45.4659 30.4621 45.4659 29.3409C45.4659 28.2273 45.2955 27.2045 44.9545 26.2727C44.6212 25.3333 44.1061 24.5795 43.4091 24.0114C42.7121 23.4432 41.8333 23.1591 40.7727 23.1591C39.7045 23.1591 38.8182 23.4432 38.1136 24.0114C37.4167 24.5795 36.8977 25.3333 36.5568 26.2727C36.2235 27.2045 36.0568 28.2273 36.0568 29.3409C36.0568 30.4621 36.2235 31.4886 36.5568 32.4205C36.8977 33.3523 37.4167 34.0985 38.1136 34.6591C38.8182 35.2197 39.7045 35.5 40.7727 35.5ZM52.9631 38V14.7273H56.3608V23.375H56.5653C56.7623 23.0114 57.0464 22.5909 57.4176 22.1136C57.7888 21.6364 58.304 21.2197 58.9631 20.8636C59.6222 20.5 60.4934 20.3182 61.5767 20.3182C62.9858 20.3182 64.2434 20.6742 65.3494 21.3864C66.4555 22.0985 67.3229 23.125 67.9517 24.4659C68.5881 25.8068 68.9062 27.4205 68.9062 29.3068C68.9062 31.1932 68.5919 32.8106 67.9631 34.1591C67.3343 35.5 66.4706 36.5341 65.3722 37.2614C64.2737 37.9811 63.0199 38.3409 61.6108 38.3409C60.5502 38.3409 59.6828 38.1629 59.0085 37.8068C58.3419 37.4508 57.8191 37.0341 57.4403 36.5568C57.0616 36.0795 56.7699 35.6553 56.5653 35.2841H56.2812V38H52.9631ZM56.2926 29.2727C56.2926 30.5 56.4706 31.5758 56.8267 32.5C57.1828 33.4242 57.6979 34.1477 58.3722 34.6705C59.0464 35.1856 59.8722 35.4432 60.8494 35.4432C61.8646 35.4432 62.7131 35.1742 63.3949 34.6364C64.0767 34.0909 64.5919 33.3523 64.9403 32.4205C65.2964 31.4886 65.4744 30.4394 65.4744 29.2727C65.4744 28.1212 65.3002 27.0871 64.9517 26.1705C64.6108 25.2538 64.0956 24.5303 63.4062 24C62.7244 23.4697 61.8722 23.2045 60.8494 23.2045C59.8646 23.2045 59.0312 23.4583 58.3494 23.9659C57.6752 24.4735 57.1638 25.1818 56.8153 26.0909C56.4669 27 56.2926 28.0606 56.2926 29.2727ZM72.9943 38V14.7273H76.392V23.375H76.5966C76.7936 23.0114 77.0777 22.5909 77.4489 22.1136C77.8201 21.6364 78.3352 21.2197 78.9943 20.8636C79.6534 20.5 80.5246 20.3182 81.608 20.3182C83.017 20.3182 84.2746 20.6742 85.3807 21.3864C86.4867 22.0985 87.3542 23.125 87.983 24.4659C88.6193 25.8068 88.9375 27.4205 88.9375 29.3068C88.9375 31.1932 88.6231 32.8106 87.9943 34.1591C87.3655 35.5 86.5019 36.5341 85.4034 37.2614C84.3049 37.9811 83.0511 38.3409 81.642 38.3409C80.5814 38.3409 79.714 38.1629 79.0398 37.8068C78.3731 37.4508 77.8504 37.0341 77.4716 36.5568C77.0928 36.0795 76.8011 35.6553 76.5966 35.2841H76.3125V38H72.9943ZM76.3239 29.2727C76.3239 30.5 76.5019 31.5758 76.858 32.5C77.214 33.4242 77.7292 34.1477 78.4034 34.6705C79.0777 35.1856 79.9034 35.4432 80.8807 35.4432C81.8958 35.4432 82.7443 35.1742 83.4261 34.6364C84.108 34.0909 84.6231 33.3523 84.9716 32.4205C85.3277 31.4886 85.5057 30.4394 85.5057 29.2727C85.5057 28.1212 85.3314 27.0871 84.983 26.1705C84.642 25.2538 84.1269 24.5303 83.4375 24C82.7557 23.4697 81.9034 23.2045 80.8807 23.2045C79.8958 23.2045 79.0625 23.4583 78.3807 23.9659C77.7064 24.4735 77.1951 25.1818 76.8466 26.0909C76.4981 27 76.3239 28.0606 76.3239 29.2727ZM94.3068 44.5455C93.7992 44.5455 93.3371 44.5038 92.9205 44.4205C92.5038 44.3447 92.1932 44.2614 91.9886 44.1705L92.8068 41.3864C93.428 41.553 93.9811 41.625 94.4659 41.6023C94.9508 41.5795 95.3788 41.3977 95.75 41.0568C96.1288 40.7159 96.4621 40.1591 96.75 39.3864L97.1705 38.2273L90.7841 20.5455H94.4205L98.8409 34.0909H99.0227L103.443 20.5455H107.091L99.8977 40.3295C99.5644 41.2386 99.1402 42.0076 98.625 42.6364C98.1098 43.2727 97.4962 43.75 96.7841 44.0682C96.072 44.3864 95.2462 44.5455 94.3068 44.5455ZM20.4318 77V53.7273H28.9545C30.6061 53.7273 31.9735 54 33.0568 54.5455C34.1402 55.0833 34.9508 55.8144 35.4886 56.7386C36.0265 57.6553 36.2955 58.6894 36.2955 59.8409C36.2955 60.8106 36.1174 61.6288 35.7614 62.2955C35.4053 62.9545 34.928 63.4848 34.3295 63.8864C33.7386 64.2803 33.0871 64.5682 32.375 64.75V64.9773C33.1477 65.0152 33.9015 65.2652 34.6364 65.7273C35.3788 66.1818 35.9924 66.8295 36.4773 67.6705C36.9621 68.5114 37.2045 69.5341 37.2045 70.7386C37.2045 71.928 36.9242 72.9962 36.3636 73.9432C35.8106 74.8826 34.9545 75.6288 33.7955 76.1818C32.6364 76.7273 31.1553 77 29.3523 77H20.4318ZM23.9432 73.9886H29.0114C30.6932 73.9886 31.8977 73.6629 32.625 73.0114C33.3523 72.3598 33.7159 71.5455 33.7159 70.5682C33.7159 69.8333 33.5303 69.1591 33.1591 68.5455C32.7879 67.9318 32.2576 67.4432 31.5682 67.0795C30.8864 66.7159 30.0758 66.5341 29.1364 66.5341H23.9432V73.9886ZM23.9432 63.7955H28.6477C29.4356 63.7955 30.1439 63.6439 30.7727 63.3409C31.4091 63.0379 31.9129 62.6136 32.2841 62.0682C32.6629 61.5152 32.8523 60.8636 32.8523 60.1136C32.8523 59.1515 32.5152 58.3447 31.8409 57.6932C31.1667 57.0417 30.1326 56.7159 28.7386 56.7159H23.9432V63.7955ZM48.4489 77.3523C46.8125 77.3523 45.3845 76.9773 44.1648 76.2273C42.9451 75.4773 41.9981 74.428 41.3239 73.0795C40.6496 71.7311 40.3125 70.1553 40.3125 68.3523C40.3125 66.5417 40.6496 64.9583 41.3239 63.6023C41.9981 62.2462 42.9451 61.1932 44.1648 60.4432C45.3845 59.6932 46.8125 59.3182 48.4489 59.3182C50.0852 59.3182 51.5133 59.6932 52.733 60.4432C53.9527 61.1932 54.8996 62.2462 55.5739 63.6023C56.2481 64.9583 56.5852 66.5417 56.5852 68.3523C56.5852 70.1553 56.2481 71.7311 55.5739 73.0795C54.8996 74.428 53.9527 75.4773 52.733 76.2273C51.5133 76.9773 50.0852 77.3523 48.4489 77.3523ZM48.4602 74.5C49.5208 74.5 50.3996 74.2197 51.0966 73.6591C51.7936 73.0985 52.3087 72.3523 52.642 71.4205C52.983 70.4886 53.1534 69.4621 53.1534 68.3409C53.1534 67.2273 52.983 66.2045 52.642 65.2727C52.3087 64.3333 51.7936 63.5795 51.0966 63.0114C50.3996 62.4432 49.5208 62.1591 48.4602 62.1591C47.392 62.1591 46.5057 62.4432 45.8011 63.0114C45.1042 63.5795 44.5852 64.3333 44.2443 65.2727C43.911 66.2045 43.7443 67.2273 43.7443 68.3409C43.7443 69.4621 43.911 70.4886 44.2443 71.4205C44.5852 72.3523 45.1042 73.0985 45.8011 73.6591C46.5057 74.2197 47.392 74.5 48.4602 74.5ZM65.4574 77.3864C64.3513 77.3864 63.3513 77.1818 62.4574 76.7727C61.5634 76.3561 60.8551 75.7538 60.3324 74.9659C59.8172 74.178 59.5597 73.2121 59.5597 72.0682C59.5597 71.0833 59.7491 70.2727 60.1278 69.6364C60.5066 69 61.018 68.4962 61.6619 68.125C62.3059 67.7538 63.0256 67.4735 63.821 67.2841C64.6165 67.0947 65.4271 66.9508 66.2528 66.8523C67.2983 66.7311 68.1468 66.6326 68.7983 66.5568C69.4498 66.4735 69.9233 66.3409 70.2188 66.1591C70.5142 65.9773 70.6619 65.6818 70.6619 65.2727V65.1932C70.6619 64.2008 70.3816 63.4318 69.821 62.8864C69.268 62.3409 68.4422 62.0682 67.3438 62.0682C66.1998 62.0682 65.2983 62.322 64.6392 62.8295C63.9877 63.3295 63.5369 63.8864 63.2869 64.5L60.0938 63.7727C60.4725 62.7121 61.0256 61.8561 61.7528 61.2045C62.4877 60.5455 63.3324 60.0682 64.2869 59.7727C65.2415 59.4697 66.2453 59.3182 67.2983 59.3182C67.9953 59.3182 68.7339 59.4015 69.5142 59.5682C70.3021 59.7273 71.0369 60.0227 71.7188 60.4545C72.4081 60.8864 72.9725 61.5038 73.4119 62.3068C73.8513 63.1023 74.071 64.1364 74.071 65.4091V77H70.7528V74.6136H70.6165C70.3968 75.053 70.0672 75.4848 69.6278 75.9091C69.1884 76.3333 68.6241 76.6856 67.9347 76.9659C67.2453 77.2462 66.4195 77.3864 65.4574 77.3864ZM66.196 74.6591C67.1354 74.6591 67.9384 74.4735 68.6051 74.1023C69.2794 73.7311 69.7907 73.2462 70.1392 72.6477C70.4953 72.0417 70.6733 71.3939 70.6733 70.7045V68.4545C70.5521 68.5758 70.3172 68.6894 69.9688 68.7955C69.6278 68.8939 69.2377 68.9811 68.7983 69.0568C68.3589 69.125 67.9309 69.1894 67.5142 69.25C67.0975 69.303 66.7491 69.3485 66.4688 69.3864C65.8097 69.4697 65.2074 69.6098 64.6619 69.8068C64.1241 70.0038 63.6922 70.2879 63.3665 70.6591C63.0483 71.0227 62.8892 71.5076 62.8892 72.1136C62.8892 72.9545 63.1998 73.5909 63.821 74.0227C64.4422 74.447 65.2339 74.6591 66.196 74.6591ZM78.5966 77V59.5455H81.8807V62.3182H82.0625C82.3807 61.3788 82.9413 60.6402 83.7443 60.1023C84.5549 59.5568 85.4716 59.2841 86.4943 59.2841C86.7064 59.2841 86.9564 59.2917 87.2443 59.3068C87.5398 59.322 87.7708 59.3409 87.9375 59.3636V62.6136C87.8011 62.5758 87.5587 62.5341 87.2102 62.4886C86.8617 62.4356 86.5133 62.4091 86.1648 62.4091C85.3617 62.4091 84.6458 62.5795 84.017 62.9205C83.3958 63.2538 82.9034 63.7197 82.5398 64.3182C82.1761 64.9091 81.9943 65.5833 81.9943 66.3409V77H78.5966ZM96.7869 77.3409C95.3778 77.3409 94.1203 76.9811 93.0142 76.2614C91.9157 75.5341 91.0521 74.5 90.4233 73.1591C89.8021 71.8106 89.4915 70.1932 89.4915 68.3068C89.4915 66.4205 89.8059 64.8068 90.4347 63.4659C91.071 62.125 91.9422 61.0985 93.0483 60.3864C94.1544 59.6742 95.4081 59.3182 96.8097 59.3182C97.893 59.3182 98.7642 59.5 99.4233 59.8636C100.09 60.2197 100.605 60.6364 100.969 61.1136C101.34 61.5909 101.628 62.0114 101.832 62.375H102.037V53.7273H105.435V77H102.116V74.2841H101.832C101.628 74.6553 101.332 75.0795 100.946 75.5568C100.567 76.0341 100.045 76.4508 99.3778 76.8068C98.7112 77.1629 97.8475 77.3409 96.7869 77.3409ZM97.5369 74.4432C98.5142 74.4432 99.34 74.1856 100.014 73.6705C100.696 73.1477 101.211 72.4242 101.56 71.5C101.916 70.5758 102.094 69.5 102.094 68.2727C102.094 67.0606 101.92 66 101.571 65.0909C101.223 64.1818 100.711 63.4735 100.037 62.9659C99.3627 62.4583 98.5294 62.2045 97.5369 62.2045C96.5142 62.2045 95.6619 62.4697 94.9801 63C94.2983 63.5303 93.7831 64.2538 93.4347 65.1705C93.0938 66.0871 92.9233 67.1212 92.9233 68.2727C92.9233 69.4394 93.0975 70.4886 93.446 71.4205C93.7945 72.3523 94.3097 73.0909 94.9915 73.6364C95.6809 74.1742 96.5294 74.4432 97.5369 74.4432Z" fill="white"/>
</svg>
